<svg width="25" height="25" viewBox="0 0 25 25" fill="none" xmlns="http://www.w3.org/2000/svg">
<circle cx="12.5" cy="12.5" r="12.5" fill="white"/>
<path d="M15.5555 18H9.44444C8.79155 18 8.1777 17.7457 7.71597 17.284C7.25427 16.8223 7 16.2085 7 15.5555V14.9444C7 14.6069 7.27359 14.3333 7.61111 14.3333C7.94864 14.3333 8.22223 14.6069 8.22223 14.9444V15.5555C8.22223 15.882 8.34937 16.1889 8.58018 16.4198C8.81106 16.6506 9.11797 16.7778 9.44444 16.7778H15.5555C15.882 16.7778 16.1889 16.6506 16.4198 16.4198C16.6506 16.1889 16.7778 15.882 16.7778 15.5555V14.9444C16.7778 14.6069 17.0514 14.3333 17.3889 14.3333C17.7264 14.3333 18 14.6069 18 14.9444V15.5555C18 16.2084 17.7457 16.8223 17.284 17.284C16.8223 17.7457 16.2084 18 15.5555 18ZM12.5 15.5555C12.4155 15.5555 12.335 15.5384 12.2618 15.5073C12.1934 15.4785 12.1292 15.4365 12.0731 15.3817C12.0731 15.3817 12.0731 15.3817 12.073 15.3817C12.0726 15.3813 12.0722 15.3809 12.0718 15.3805C12.0717 15.3804 12.0716 15.3802 12.0715 15.3801C12.0711 15.3798 12.0708 15.3795 12.0705 15.3792C12.0703 15.379 12.0701 15.3788 12.0699 15.3786C12.0697 15.3784 12.0694 15.3781 12.0692 15.3779C12.0688 15.3775 12.0683 15.377 12.0679 15.3766L9.62344 12.9321C9.38479 12.6935 9.38479 12.3065 9.62344 12.0679C9.86208 11.8292 10.249 11.8292 10.4877 12.0679L11.8889 13.4691V7.61111C11.8889 7.27359 12.1625 7 12.5 7C12.8375 7 13.1111 7.27359 13.1111 7.61111V13.469L14.5123 12.0679C14.7509 11.8292 15.1379 11.8292 15.3766 12.0679C15.6152 12.3065 15.6152 12.6935 15.3766 12.9321L12.9321 15.3765C12.9317 15.377 12.9312 15.3774 12.9308 15.3779C12.9305 15.3781 12.9303 15.3784 12.9301 15.3785C12.9299 15.3788 12.9297 15.3789 12.9295 15.3791C12.9292 15.3795 12.9288 15.3798 12.9285 15.3801C12.9284 15.3802 12.9283 15.3803 12.9282 15.3804C12.9278 15.3808 12.9274 15.3812 12.927 15.3816C12.927 15.3816 12.927 15.3816 12.9269 15.3817C12.9202 15.3882 12.9134 15.3946 12.9064 15.4008C12.8553 15.4464 12.7983 15.482 12.738 15.5074C12.7378 15.5075 12.7376 15.5076 12.7374 15.5077C12.7372 15.5077 12.737 15.5079 12.7368 15.5079C12.6639 15.5386 12.5839 15.5555 12.5 15.5555Z" fill="#351CD6"/>
</svg>
